<svg width="100" height="53" viewBox="0 0 100 53" fill="none" xmlns="http://www.w3.org/2000/svg">
<path d="M22.3261 52.6269H0V51.8064C2.43147 51.8064 4.03087 51.583 4.80027 51.1343C5.56884 50.6864 5.95354 49.9146 5.95354 48.8198V4.18015C5.95354 3.08538 5.56884 2.31444 4.80027 1.86652C4.03087 1.41902 2.43147 1.19444 0 1.19444V0.373047H22.3261C27.535 0.373047 32.261 1.28129 36.5026 3.0982C40.7442 4.9151 44.1182 7.75109 46.6235 11.6078C49.1288 15.4646 50.3822 20.4293 50.3822 26.5C50.3822 32.5707 49.1288 37.5354 46.6235 41.3921C44.1182 45.2489 40.7446 48.0861 36.5026 49.9026C32.261 51.7195 27.535 52.6269 22.3261 52.6269ZM22.3261 51.8064C25.6502 51.8064 28.6016 50.8609 31.1824 48.9695C33.7619 47.079 35.7959 44.2542 37.2839 40.4967C38.772 36.7397 39.5167 32.0739 39.5167 26.5C39.5167 20.926 38.772 16.1995 37.2839 12.466C35.7959 8.73378 33.7619 5.92178 31.1824 4.03126C28.6016 2.14073 25.6502 1.19444 22.3261 1.19444H15.6279V51.8064H22.3261Z" fill="black"/>
<path d="M73.6727 53C69.3066 53 65.2757 51.9429 61.5797 49.8282C57.8836 47.7131 54.9194 44.6649 52.6867 40.6833C50.4539 36.7025 49.3378 31.9495 49.3378 26.4251C49.3378 18.6625 51.6192 12.3176 56.184 7.39045C60.7488 2.46376 66.9996 0 74.9381 0C77.4681 0 80.3709 0.124491 83.6451 0.373059C86.9198 0.622454 89.9207 0.895424 92.6495 1.19486C92.1526 2.93691 91.8302 5.0396 91.6813 7.50295C91.5321 9.96588 91.4587 12.6662 91.4587 15.6019H90.566C89.8213 12.8656 88.8046 10.3898 87.5144 8.17503C86.2242 5.96026 84.6244 4.1934 82.7149 2.87446C80.8042 1.55634 78.4853 0.896251 75.7566 0.896251C71.0924 0.896251 67.285 2.82482 64.3327 6.68156C61.3805 10.5383 59.9052 15.2292 59.9052 20.7532C59.9052 26.2771 60.7233 31.1413 62.3606 34.8988C63.9979 38.6558 66.2307 41.4678 69.0588 43.3344C71.8869 45.2009 75.0371 46.1336 78.5105 46.1336C83.6699 46.1336 88.0855 44.3179 91.7576 40.6841L92.4268 41.132C92.1287 41.9286 91.5581 42.9737 90.7149 44.2679C89.8717 45.562 88.7056 46.8805 87.2175 48.2234C85.7286 49.5676 83.8686 50.6992 81.6359 51.6198C79.4032 52.5413 76.749 53.0008 73.6731 53.0008L73.6727 53Z" fill="black"/>
<path d="M48.8253 51.43C50.694 51.43 52.2088 49.9105 52.2088 48.0361C52.2088 46.1617 50.694 44.6422 48.8253 44.6422C46.9566 44.6422 45.4418 46.1617 45.4418 48.0361C45.4418 49.9105 46.9566 51.43 48.8253 51.43Z" fill="black"/>
<path d="M96.6164 51.43C98.4851 51.43 100 49.9105 100 48.0361C100 46.1617 98.4851 44.6422 96.6164 44.6422C94.7478 44.6422 93.2329 46.1617 93.2329 48.0361C93.2329 49.9105 94.7478 51.43 96.6164 51.43Z" fill="black"/>
</svg>
