<svg width="477" height="118" viewBox="0 0 477 118" fill="none" xmlns="http://www.w3.org/2000/svg">
<g clip-path="url(#clip0_83_245)">
<path d="M37.0693 87.1112H0V85.7519C4.03696 85.7519 6.6934 85.3819 7.97016 84.641C9.24521 83.8993 9.88486 82.6226 9.88486 80.8099V6.91883C9.88486 5.10789 9.24521 3.83113 7.97016 3.08941C6.6934 2.34853 4.03696 1.97682 0 1.97682V0.617554H37.0693C45.7191 0.617554 53.5651 2.12227 60.6081 5.1283C67.6511 8.13434 73.2514 12.8305 77.4117 19.2143C81.5712 25.5981 83.6509 33.8158 83.6509 43.8648C83.6509 53.9138 81.5703 62.1332 77.4117 68.517C73.2506 74.9008 67.6511 79.597 60.6081 82.603C53.5651 85.609 45.7191 87.112 37.0693 87.112V87.1112ZM37.0693 85.7519C42.5872 85.7519 47.4875 84.1868 51.7728 81.0574C56.0556 77.9281 59.4334 73.2532 61.9052 67.0335C64.3754 60.8139 65.6122 53.0913 65.6122 43.8648C65.6122 34.6383 64.3754 26.8153 61.9052 20.6357C59.4334 14.4577 56.0556 9.80322 51.7728 6.67385C47.4883 3.54448 42.5872 1.97767 37.0693 1.97767H25.9494V85.7528H37.0693V85.7519Z" fill="white"/>
<path d="M143.824 87.7287C139.787 87.7287 136.823 86.2061 134.929 83.1576C133.034 80.1098 132.087 76.4446 132.087 72.1592C131.263 74.7136 129.944 77.1651 128.132 79.5119C126.319 81.8604 123.97 83.8168 121.089 85.3819C118.207 86.947 114.705 87.7287 110.586 87.7287C105.562 87.7287 101.339 86.3499 97.9215 83.5897C94.5038 80.8312 92.7949 76.6504 92.7949 71.0484C92.7949 67.0948 93.6804 63.9016 95.4514 61.4714C97.2223 59.0412 99.6925 57.0866 102.864 55.6039C106.036 54.1213 109.681 52.8437 113.801 51.7728L131.964 47.0783C131.964 43.0414 130.974 39.9112 128.997 37.6868C127.021 35.4642 124.653 33.8991 121.892 32.9923C119.132 32.0848 116.518 31.6314 114.048 31.6314C109.764 31.6314 105.974 32.6827 102.681 34.7829C99.3854 36.883 97.1611 39.5811 96.0076 42.8755L94.7726 42.3822C95.596 39.7478 97.0573 37.0701 99.1574 34.3516C101.258 31.6339 104.142 29.3254 107.807 27.4311C111.472 25.5368 116.025 24.5892 121.461 24.5892C129.452 24.5892 135.835 26.999 140.613 31.8177C145.39 36.638 147.78 44.0306 147.78 53.9972V73.7669C147.78 77.228 148.686 79.0806 150.498 79.3273C151.569 79.3273 152.495 78.7718 153.278 77.6601C154.06 76.5492 154.781 75.0037 155.44 73.0252L156.554 73.5185C155.151 78.2147 153.524 81.7566 151.671 84.1451C149.817 86.5353 147.202 87.7287 143.825 87.7287H143.824ZM116.766 83.0334C119.566 83.0334 122.12 82.0041 124.426 79.944C126.732 77.8855 128.565 75.4553 129.925 72.6535C131.284 69.8533 131.964 67.3831 131.964 65.2404V48.4368C130.728 48.7668 129.533 49.096 128.38 49.4243C123.767 50.6611 119.956 51.9183 116.95 53.1933C113.944 54.4701 111.74 56.2411 110.341 58.5071C108.94 60.7731 108.241 64.1287 108.241 68.5757C108.241 70.6358 108.447 72.7785 108.859 75.0011C109.27 77.2254 110.094 79.1197 111.329 80.6848C112.564 82.2517 114.376 83.0334 116.767 83.0334H116.766Z" fill="white"/>
<path d="M235.506 87.7287C228.257 87.7287 221.563 85.9799 215.428 82.4788C209.291 78.9777 204.369 73.9328 200.662 67.3414C196.956 60.7518 195.102 52.8854 195.102 43.7406C195.102 30.8897 198.89 20.3873 206.468 12.2334C214.047 4.07865 224.426 0 237.608 0C241.809 0 246.627 0.205846 252.064 0.617538C257.5 1.02923 262.484 1.4826 267.015 1.9768C266.191 4.86035 265.655 8.34187 265.408 12.4188C265.16 16.4958 265.038 20.9648 265.038 25.8252H263.555C262.318 21.2949 260.629 17.1958 258.489 13.5306C256.346 9.8653 253.691 6.94093 250.519 4.75913C247.347 2.57648 243.496 1.48345 238.967 1.48345C231.223 1.48345 224.9 4.67662 219.998 11.0604C215.098 17.4442 212.647 25.2085 212.647 34.3516C212.647 43.4948 214.007 51.5474 216.724 57.7662C219.442 63.9858 223.148 68.6386 227.844 71.728C232.539 74.8174 237.769 76.3604 243.537 76.3604C252.103 76.3604 259.436 73.3544 265.531 67.3406L266.645 68.0823C266.149 69.4016 265.202 71.13 263.801 73.2727C262.4 75.4154 260.463 77.5972 257.993 79.8215C255.523 82.0458 252.433 83.9206 248.728 85.4431C245.021 86.9657 240.614 87.7279 235.505 87.7279L235.506 87.7287Z" fill="white"/>
<path d="M324.223 87.7287C320.186 87.7287 317.221 86.2061 315.327 83.1576C313.433 80.1098 312.485 76.4446 312.485 72.1592C311.662 74.7136 310.343 77.1651 308.53 79.5119C306.717 81.8604 304.369 83.8168 301.487 85.3819C298.605 86.947 295.103 87.7287 290.985 87.7287C285.96 87.7287 281.738 86.3499 278.32 83.5897C274.902 80.8312 273.193 76.6504 273.193 71.0484C273.193 67.0948 274.079 63.9016 275.85 61.4714C277.621 59.0412 280.091 57.0866 283.263 55.6039C286.435 54.1213 290.08 52.8437 294.199 51.7728L312.362 47.0783C312.362 43.0414 311.373 39.9112 309.396 37.6868C307.419 35.4642 305.051 33.8991 302.291 32.9923C299.531 32.0848 296.917 31.6314 294.447 31.6314C290.162 31.6314 286.373 32.6827 283.079 34.7829C279.784 36.883 277.56 39.5811 276.406 42.8755L275.171 42.3822C275.994 39.7478 277.456 37.0701 279.556 34.3516C281.656 31.6339 284.54 29.3254 288.206 27.4311C291.871 25.5368 296.423 24.5892 301.86 24.5892C309.85 24.5892 316.233 26.999 321.012 31.8177C325.789 36.638 328.179 44.0306 328.179 53.9972V73.7669C328.179 77.228 329.084 79.0806 330.897 79.3273C331.968 79.3273 332.893 78.7718 333.676 77.6601C334.458 76.5492 335.179 75.0037 335.839 73.0252L336.952 73.5185C335.549 78.2147 333.922 81.7566 332.07 84.1451C330.215 86.5353 327.601 87.7287 324.224 87.7287H324.223ZM297.164 83.0334C299.964 83.0334 302.519 82.0041 304.825 79.944C307.131 77.8855 308.964 75.4553 310.323 72.6535C311.682 69.8533 312.362 67.3831 312.362 65.2404V48.4368C311.127 48.7668 309.932 49.096 308.778 49.4243C304.166 50.6611 300.355 51.9183 297.349 53.1933C294.343 54.4701 292.139 56.2411 290.74 58.5071C289.339 60.7731 288.639 64.1287 288.639 68.5757C288.639 70.6358 288.845 72.7785 289.257 75.0011C289.669 77.2254 290.492 79.1197 291.727 80.6848C292.962 82.2517 294.775 83.0334 297.165 83.0334H297.164Z" fill="white"/>
<path d="M371.92 118H339.424V116.765C343.459 116.765 346.011 116.393 347.083 115.654C348.154 114.911 348.689 113.634 348.689 111.823V34.7208C348.689 32.8265 348.154 31.5293 347.083 30.8293C346.012 30.1301 343.459 29.7779 339.424 29.7779V28.4186C344.694 28.4186 349.451 28.1924 353.694 27.739C357.935 27.2873 360.674 26.4835 361.911 25.3293H363.146V37.8102C364.3 34.1849 366.442 31.0751 369.572 28.4807C372.701 25.8864 376.736 24.5875 381.681 24.5875C388.682 24.5875 394.489 27.4294 399.102 33.1131C403.715 38.7969 406.021 46.6649 406.021 56.714C406.021 63.717 404.888 69.5249 402.624 74.1369C400.358 78.7497 397.371 82.1887 393.666 84.4539C389.959 86.7199 385.881 87.8512 381.433 87.8512C376.984 87.8512 372.824 86.8015 369.448 84.7014C366.07 82.6013 363.804 79.9848 362.652 76.8529V111.821C362.652 113.632 363.186 114.909 364.257 115.652C365.328 116.392 367.882 116.763 371.919 116.763V117.998L371.92 118ZM375.626 85.0102C379.744 85.0102 383.204 82.5596 386.006 77.6592C388.806 72.7589 390.207 65.9822 390.207 57.3324C390.207 47.5317 388.827 40.1791 386.067 35.2779C383.306 30.3767 379.868 27.9253 375.75 27.9253C371.632 27.9253 368.707 29.9038 366.482 33.8566C364.258 37.8102 363.147 42.3405 363.147 47.4466V71.4175C363.147 75.0428 364.444 78.2147 367.039 80.9324C369.633 83.65 372.497 85.0093 375.626 85.0093L375.626 85.0102Z" fill="white"/>
<path d="M445.561 87.852C436.499 87.852 429.105 84.9081 423.381 79.0185C417.658 73.1289 414.795 65.5305 414.795 56.2206C414.795 46.9108 417.636 39.3132 423.319 33.4236C429.003 27.534 436.416 24.5884 445.561 24.5884C454.706 24.5884 462.119 27.534 467.802 33.4236C473.486 39.3132 476.328 46.9116 476.328 56.2206C476.328 65.5296 473.486 73.1281 467.802 79.0185C462.119 84.9081 454.704 87.852 445.561 87.852ZM445.561 86.617C450.503 86.617 454.23 83.8789 456.743 78.401C459.256 72.9231 460.512 65.5305 460.512 56.2215C460.512 46.9125 459.255 39.5199 456.743 34.042C454.231 28.5658 450.504 25.826 445.561 25.826C440.618 25.826 436.892 28.5658 434.379 34.042C431.864 39.5199 430.61 46.9125 430.61 56.2215C430.61 65.5305 431.865 72.9231 434.379 78.401C436.891 83.8789 440.618 86.617 445.561 86.617Z" fill="white"/>
</g>
<defs>
<clipPath id="clip0_83_245">
<rect width="476.328" height="118" fill="white"/>
</clipPath>
</defs>
</svg>
