<svg width="200" height="50" viewBox="0 0 200 50" fill="none" xmlns="http://www.w3.org/2000/svg">
<g clip-path="url(#clip0_114_30)">
<path d="M15.5646 36.5761H0V36.0054C1.69504 36.0054 2.81042 35.85 3.3465 35.539C3.88187 35.2275 4.15045 34.6914 4.15045 33.9304V2.90505C4.15045 2.14467 3.88187 1.60859 3.3465 1.29716C2.81042 0.986079 1.69504 0.830004 0 0.830004V0.259277H15.5646C19.1965 0.259277 22.4908 0.891077 25.448 2.15325C28.4053 3.41542 30.7567 5.38724 32.5036 8.06766C34.25 10.7481 35.1233 14.1985 35.1233 18.4179C35.1233 22.6373 34.2497 26.0884 32.5036 28.7688C30.7564 31.4492 28.4053 33.4211 25.448 34.6832C22.4908 35.9454 19.1965 36.5765 15.5646 36.5765V36.5761ZM15.5646 36.0054C17.8815 36.0054 19.939 35.3482 21.7383 34.0343C23.5366 32.7203 24.9548 30.7574 25.9927 28.1459C27.0299 25.5345 27.5492 22.2919 27.5492 18.4179C27.5492 14.5439 27.0299 11.2592 25.9927 8.66446C24.9548 6.07047 23.5366 4.11615 21.7383 2.80219C19.9394 1.48823 17.8815 0.830361 15.5646 0.830361H10.8956V36.0058H15.5646V36.0054Z" fill="#FAFAFA"/>
<path d="M60.3888 36.8354C58.6938 36.8354 57.4491 36.1961 56.6537 34.9161C55.8583 33.6364 55.4605 32.0974 55.4605 30.2981C55.1147 31.3706 54.5608 32.3999 53.7997 33.3853C53.0386 34.3714 52.0525 35.1929 50.8425 35.85C49.6325 36.5072 48.1621 36.8354 46.4328 36.8354C44.3231 36.8354 42.5502 36.2564 41.1152 35.0975C39.6801 33.9393 38.9626 32.1839 38.9626 29.8317C38.9626 28.1716 39.3344 26.8309 40.078 25.8105C40.8216 24.7901 41.8587 23.9694 43.1906 23.3469C44.5224 22.7244 46.0528 22.1879 47.7824 21.7383L55.4087 19.7672C55.4087 18.0721 54.9933 16.7578 54.1633 15.8239C53.3333 14.8906 52.339 14.2335 51.18 13.8528C50.0211 13.4717 48.9235 13.2813 47.8864 13.2813C46.0874 13.2813 44.4963 13.7228 43.1134 14.6046C41.7298 15.4864 40.7959 16.6192 40.3116 18.0025L39.793 17.7953C40.1387 16.6892 40.7523 15.5649 41.6341 14.4235C42.5159 13.2824 43.727 12.3131 45.266 11.5177C46.8049 10.7223 48.7164 10.3245 50.9989 10.3245C54.354 10.3245 57.0341 11.3363 59.0405 13.3595C61.0463 15.3835 62.0499 18.4875 62.0499 22.6722V30.9731C62.0499 32.4264 62.4299 33.2042 63.191 33.3078C63.6406 33.3078 64.0292 33.0746 64.3582 32.6078C64.6864 32.1414 64.9892 31.4924 65.266 30.6617L65.7335 30.8688C65.1446 32.8407 64.4614 34.3278 63.6835 35.3307C62.9049 36.3343 61.807 36.8354 60.3891 36.8354H60.3888ZM49.0275 34.8639C50.2032 34.8639 51.2757 34.4318 52.244 33.5667C53.2122 32.7024 53.9819 31.6821 54.5526 30.5056C55.1233 29.3299 55.4087 28.2927 55.4087 27.393V20.3375C54.8901 20.4761 54.3883 20.6143 53.904 20.7522C51.9672 21.2715 50.3671 21.7994 49.105 22.3347C47.8428 22.8708 46.9174 23.6144 46.3299 24.5658C45.7417 25.5173 45.4481 26.9262 45.4481 28.7934C45.4481 29.6584 45.5345 30.5581 45.7074 31.4913C45.8803 32.4253 46.226 33.2207 46.7446 33.8778C47.2631 34.5357 48.0242 34.8639 49.0278 34.8639H49.0275Z" fill="#FAFAFA"/>
<path d="M98.8839 36.8354C95.8403 36.8354 93.0298 36.1011 90.4537 34.6311C87.8769 33.1611 85.8101 31.0428 84.2539 28.2752C82.6975 25.5084 81.9193 22.2055 81.9193 18.3657C81.9193 12.9699 83.5096 8.56018 86.6915 5.13654C89.8737 1.71254 94.2317 0 99.7664 0C101.53 0 103.554 0.0864304 105.836 0.259291C108.119 0.432152 110.212 0.622513 112.114 0.830018C111.768 2.04076 111.543 3.50258 111.439 5.2144C111.335 6.92622 111.284 8.80269 111.284 10.8434H110.661C110.142 8.94126 109.433 7.22015 108.534 5.68119C107.634 4.14223 106.519 2.91435 105.188 1.99826C103.856 1.08181 102.239 0.622871 100.337 0.622871C97.0856 0.622871 94.4306 1.96361 92.3727 4.64403C90.3151 7.32444 89.2862 10.5845 89.2862 14.4235C89.2862 18.2625 89.8569 21.6437 90.998 24.2548C92.1391 26.8663 93.6952 28.8199 95.6671 30.1171C97.6382 31.4142 99.8343 32.0621 102.256 32.0621C105.853 32.0621 108.932 30.7999 111.491 28.2749L111.958 28.5863C111.75 29.1403 111.353 29.866 110.765 30.7657C110.176 31.6653 109.363 32.5814 108.326 33.5154C107.289 34.4493 105.991 35.2365 104.435 35.8758C102.879 36.5151 101.029 36.8351 98.8835 36.8351L98.8839 36.8354Z" fill="#FAFAFA"/>
<path d="M136.134 36.8354C134.439 36.8354 133.195 36.1961 132.399 34.9161C131.604 33.6364 131.206 32.0974 131.206 30.2981C130.86 31.3706 130.306 32.3999 129.545 33.3853C128.784 34.3714 127.798 35.1929 126.588 35.85C125.378 36.5072 123.908 36.8354 122.178 36.8354C120.069 36.8354 118.296 36.2564 116.861 35.0975C115.426 33.9393 114.708 32.1839 114.708 29.8317C114.708 28.1716 115.08 26.8309 115.824 25.8105C116.567 24.7901 117.604 23.9694 118.936 23.3469C120.268 22.7244 121.798 22.1879 123.528 21.7383L131.154 19.7672C131.154 18.0721 130.739 16.7578 129.909 15.8239C129.079 14.8906 128.085 14.2335 126.926 13.8528C125.767 13.4717 124.669 13.2813 123.632 13.2813C121.833 13.2813 120.242 13.7228 118.859 14.6046C117.475 15.4864 116.541 16.6192 116.057 18.0025L115.539 17.7953C115.884 16.6892 116.498 15.5649 117.38 14.4235C118.261 13.2824 119.473 12.3131 121.012 11.5177C122.551 10.7223 124.462 10.3245 126.745 10.3245C130.1 10.3245 132.78 11.3363 134.786 13.3595C136.792 15.3835 137.795 18.4875 137.795 22.6722V30.9731C137.795 32.4264 138.175 33.2042 138.937 33.3078C139.386 33.3078 139.775 33.0746 140.104 32.6078C140.432 32.1414 140.735 31.4924 141.012 30.6617L141.479 30.8688C140.89 32.8407 140.207 34.3278 139.429 35.3307C138.65 36.3343 137.553 36.8354 136.135 36.8354H136.134ZM124.773 34.8639C125.949 34.8639 127.021 34.4318 127.99 33.5667C128.958 32.7024 129.727 31.6821 130.298 30.5056C130.869 29.3299 131.154 28.2927 131.154 27.393V20.3375C130.636 20.4761 130.134 20.6143 129.65 20.7522C127.713 21.2715 126.113 21.7994 124.851 22.3347C123.588 22.8708 122.663 23.6144 122.075 24.5658C121.487 25.5173 121.194 26.9262 121.194 28.7934C121.194 29.6584 121.28 30.5581 121.453 31.4913C121.626 32.4253 121.972 33.2207 122.49 33.8778C123.009 34.5357 123.77 34.8639 124.773 34.8639H124.773Z" fill="#FAFAFA"/>
<path d="M156.162 49.5456H142.517V49.0271C144.211 49.0271 145.283 48.871 145.733 48.5606C146.182 48.2485 146.407 47.7124 146.407 46.952V14.5785C146.407 13.7831 146.182 13.2384 145.733 12.9445C145.283 12.6509 144.211 12.5031 142.517 12.5031V11.9323C144.73 11.9323 146.727 11.8373 148.509 11.647C150.289 11.4573 151.44 11.1198 151.959 10.6352H152.478V15.8756C152.962 14.3535 153.861 13.0477 155.175 11.9584C156.489 10.8691 158.184 10.3237 160.26 10.3237C163.2 10.3237 165.638 11.517 167.575 13.9035C169.511 16.2899 170.48 19.5936 170.48 23.8129C170.48 26.7534 170.004 29.192 169.053 31.1285C168.102 33.0653 166.848 34.5092 165.292 35.4603C163.736 36.4118 162.023 36.8868 160.156 36.8868C158.288 36.8868 156.541 36.4461 155.123 35.5643C153.705 34.6825 152.754 33.5839 152.27 32.2688V46.9513C152.27 47.7117 152.494 48.2478 152.944 48.5599C153.394 48.8706 154.466 49.0263 156.161 49.0263V49.5449L156.162 49.5456ZM157.717 35.6939C159.447 35.6939 160.9 34.665 162.076 32.6074C163.252 30.5499 163.84 27.7045 163.84 24.0726C163.84 19.9575 163.26 16.8703 162.101 14.8124C160.942 12.7545 159.498 11.7252 157.769 11.7252C156.04 11.7252 154.812 12.5559 153.878 14.2156C152.944 15.8756 152.478 17.7778 152.478 19.9218V29.9867C152.478 31.5088 153.023 32.8406 154.112 33.9817C155.201 35.1228 156.404 35.6936 157.718 35.6936L157.717 35.6939Z" fill="#FAFAFA"/>
<path d="M187.082 36.8873C183.277 36.8873 180.172 35.6512 177.769 33.1783C175.366 30.7054 174.164 27.5149 174.164 23.6059C174.164 19.6969 175.356 16.5069 177.743 14.0339C180.129 11.561 183.242 10.3242 187.082 10.3242C190.921 10.3242 194.034 11.561 196.42 14.0339C198.807 16.5069 200 19.6973 200 23.6059C200 27.5146 198.807 30.705 196.42 33.1783C194.034 35.6512 190.921 36.8873 187.082 36.8873ZM187.082 36.3687C189.157 36.3687 190.722 35.219 191.777 32.919C192.832 30.6189 193.359 27.5149 193.359 23.6063C193.359 19.6976 192.831 16.5936 191.777 14.2936C190.722 11.9943 189.157 10.8439 187.082 10.8439C185.006 10.8439 183.441 11.9943 182.386 14.2936C181.331 16.5936 180.804 19.6976 180.804 23.6063C180.804 27.5149 181.331 30.6189 182.386 32.919C183.441 35.219 185.006 36.3687 187.082 36.3687Z" fill="#FAFAFA"/>
</g>
<defs>
<clipPath id="clip0_114_30">
<rect width="200" height="49.5457" fill="white"/>
</clipPath>
</defs>
</svg>
